<?xml version="1.0" encoding="utf-8"?>
<!-- Generator: Adobe Illustrator 26.0.2, SVG Export Plug-In . SVG Version: 6.00 Build 0)  -->
<svg version="1.1" id="Layer_1" xmlns="http://www.w3.org/2000/svg" xmlns:xlink="http://www.w3.org/1999/xlink" x="0px" y="0px"
	 viewBox="0 0 100 100" style="enable-background:new 0 0 100 100;" xml:space="preserve">
<style type="text/css">
	.st0{fill:#0EDD62;}
</style>
<path class="st0" d="M56.67,70V60c0-7.33,6-13.33,13.33-13.33h20V20H63.33l-20,20L10,46.67V70h8.33v-1.67
	c0-9.19,7.48-16.67,16.67-16.67s16.67,7.48,16.67,16.67V70H56.67z"/>
<path class="st0" d="M35,56.67c-6.44,0-11.67,5.22-11.67,11.67C23.33,74.78,28.56,80,35,80s11.67-5.22,11.67-11.67
	C46.67,61.89,41.44,56.67,35,56.67z M35,73.33c-2.76,0-5-2.24-5-5c0-2.76,2.24-5,5-5s5,2.24,5,5C40,71.09,37.76,73.33,35,73.33z"/>
<polygon class="st0" points="90,63.33 80,63.33 80,53.33 73.33,53.33 73.33,63.33 63.33,63.33 63.33,70 73.33,70 73.33,80 80,80 
	80,70 90,70 "/>
</svg>
