<?xml version="1.0" encoding="utf-8"?>
<!-- Generator: Adobe Illustrator 26.0.2, SVG Export Plug-In . SVG Version: 6.00 Build 0)  -->
<svg version="1.1" id="Layer_1" xmlns="http://www.w3.org/2000/svg" xmlns:xlink="http://www.w3.org/1999/xlink" x="0px" y="0px"
	 viewBox="0 0 2000 2000" style="enable-background:new 0 0 2000 2000;" xml:space="preserve">
<style type="text/css">
	.st0{fill-rule:evenodd;clip-rule:evenodd;fill:#EB5859;}
</style>
<path class="st0" d="M272.21,1185.53l32.36-32.35h-64.73l-32.36-64.73v-64.73h97.09l32.36-32.35h-97.09v-64.73l32.36-32.37h194.17
	l-32.36-32.36l258.9-64.73h388.36l129.45,32.37l161.81,97.09h-64.72l-97.09-64.73l-129.45-32.36H757.65L628.2,861.9l-32.37,32.36
	l64.73,64.73h258.9V861.9h32.37l32.36,97.09h582.53l194.18,32.37l-64.73,32.35l32.36,32.36h64.73v64.72l-64.73,32.37h64.73v32.35
	l-32.36,32.36h-79.36c4.97-14.56,7.68-30.14,7.68-46.36c0-79.18-64.29-143.43-143.45-143.43c-79.15,0-143.41,64.28-143.41,143.43
	c0,16.21,2.69,31.8,7.66,46.36H700.15c4.97-14.56,7.68-30.14,7.68-46.36c0-79.18-64.29-143.43-143.45-143.43
	c-79.14,0-143.42,64.28-143.42,143.43c0,16.21,2.69,31.8,7.66,46.36H304.57L272.21,1185.53L272.21,1185.53z M239.85,1250.25h246.22
	c-20.23-20.12-32.74-47.97-32.74-78.72c0-61.29,49.77-111.06,111.06-111.06c61.31,0,111.09,49.77,111.09,111.06
	c0,30.75-12.53,58.6-32.75,78.72h824.73c-20.22-20.12-32.73-47.97-32.73-78.72c0-61.29,49.77-111.06,111.05-111.06
	c61.32,0,111.09,49.77,111.09,111.06c0,30.75-12.53,58.6-32.75,78.72h104.42v32.37h-182.76H564.38H239.85V1250.25L239.85,1250.25z
	 M1545.76,1141.37c-16.62,0-30.14,13.53-30.14,30.16c0,16.63,13.5,30.17,30.14,30.17c16.66,0,30.18-13.52,30.18-30.17
	C1575.94,1154.87,1562.4,1141.37,1545.76,1141.37L1545.76,1141.37z M1545.76,1109.02c-34.49,0-62.51,28.02-62.51,62.51
	c0,34.5,28,62.54,62.51,62.54c34.52,0,62.54-28.02,62.54-62.54C1608.3,1137.02,1580.26,1109.02,1545.76,1109.02L1545.76,1109.02z
	 M564.38,1141.37c-16.62,0-30.14,13.53-30.14,30.16c0,16.63,13.5,30.17,30.14,30.17c16.65,0,30.18-13.52,30.18-30.17
	C594.56,1154.87,581.02,1141.37,564.38,1141.37L564.38,1141.37z M564.38,1109.02c-34.5,0-62.51,28.02-62.51,62.51
	c0,34.5,28,62.54,62.51,62.54c34.53,0,62.54-28.02,62.54-62.54C626.92,1137.02,598.88,1109.02,564.38,1109.02L564.38,1109.02z"/>
</svg>
