<?xml version="1.0" encoding="utf-8"?>
<!-- Generator: Adobe Illustrator 26.0.2, SVG Export Plug-In . SVG Version: 6.00 Build 0)  -->
<svg version="1.1" id="Layer_1" xmlns="http://www.w3.org/2000/svg" xmlns:xlink="http://www.w3.org/1999/xlink" x="0px" y="0px"
	 viewBox="0 0 100 100" style="enable-background:new 0 0 100 100;" xml:space="preserve">
<style type="text/css">
	.st0{fill:#5323E5;}
</style>
<path class="st0" d="M33.33,42.49L10,52.49V90h6.67V76.67h6.67V90h33.33V52.49L33.33,42.49z M30,50h6.67v6.67H30V50z M16.67,70
	v-6.67H30V70H16.67z M50,83.33H30v-6.67h20V83.33z M50,70H36.67v-6.67H50V70z"/>
<polygon class="st0" points="63.33,21.43 63.33,48.1 90,59.52 90,32.86 "/>
<polygon class="st0" points="63.33,55.35 63.33,83.33 70,83.33 70,70 83.33,70 83.33,83.33 90,83.33 90,66.78 "/>
<polygon class="st0" points="30,10 10,18.57 10,45.24 30,36.67 "/>
<polygon class="st0" points="36.67,10 36.67,36.67 56.67,45.24 56.67,18.57 "/>
</svg>
